UNKNOWN
version=1
nRows=126
nColumns=4
inDegrees=no
endheader
time	time	ankle_angle_r_moment	ankle_angle_l_moment
      0.00000000	      0.95000000	      0.60512399	      0.91258231
      1.00000000	      0.96000000	      0.59846119	      0.62590381
      2.00000000	      0.97000000	      0.59102902	      0.33281055
      3.00000000	      0.98000000	      0.58146459	      0.06056637
      4.00000000	      0.99000000	      0.56887348	     -0.16558286
      5.00000000	      1.00000000	      0.55298400	     -0.32584335
      6.00000000	      1.01000000	      0.53428650	     -0.40732934
      7.00000000	      1.02000000	      0.51417635	     -0.40565483
      8.00000000	      1.03000000	      0.49495376	     -0.32395846
      9.00000000	      1.04000000	      0.47969742	     -0.17237451
     10.00000000	      1.05000000	      0.47198897	      0.03258881
     11.00000000	      1.06000000	      0.47556200	      0.26921674
     12.00000000	      1.07000000	      0.49388274	      0.51282036
     13.00000000	      1.08000000	      0.52963191	      0.73903013
     14.00000000	      1.09000000	      0.58411988	      0.92742048
     15.00000000	      1.10000000	      0.65807047	      1.06423260
     16.00000000	      1.11000000	      0.75343983	      1.14419372
     17.00000000	      1.12000000	      0.86362464	      1.16962837
     18.00000000	      1.13000000	      0.98212514	      1.14867059
     19.00000000	      1.14000000	      1.10076374	      1.09284943
     20.00000000	      1.15000000	      1.21093918	      1.01479188
     21.00000000	      1.16000000	      1.30382824	      0.92643733
     22.00000000	      1.17000000	      1.37192399	      0.83782343
     23.00000000	      1.18000000	      1.40935004	      0.75638611
     24.00000000	      1.19000000	      1.40869825	      0.68673155
     25.00000000	      1.20000000	      1.37390163	      0.63084741
     26.00000000	      1.21000000	      1.30716259	      0.58866579
     27.00000000	      1.22000000	      1.21323909	      0.55881064
     28.00000000	      1.23000000	      1.09927711	      0.53932710
     29.00000000	      1.24000000	      0.97421607	      0.52822765
     30.00000000	      1.25000000	      0.84775687	      0.52373144
     31.00000000	      1.26000000	      0.72911013	      0.52444617
     32.00000000	      1.27000000	      0.62583676	      0.52905081
     33.00000000	      1.28000000	      0.54305340	      0.53619787
     34.00000000	      1.29000000	      0.48315695	      0.54447678
     35.00000000	      1.30000000	      0.44607205	      0.55248516
     36.00000000	      1.31000000	      0.42988334	      0.55899741
     37.00000000	      1.32000000	      0.43162109	      0.56315978
     38.00000000	      1.33000000	      0.44797062	      0.56461892
     39.00000000	      1.34000000	      0.47580894	      0.56352022
     40.00000000	      1.35000000	      0.51257405	      0.56037556
     41.00000000	      1.36000000	      0.55647456	      0.55585681
     42.00000000	      1.37000000	      0.60648557	      0.55059300
     43.00000000	      1.38000000	      0.66210984	      0.54503632
     44.00000000	      1.39000000	      0.72294396	      0.53942650
     45.00000000	      1.40000000	      0.78811857	      0.53384557
     46.00000000	      1.41000000	      0.85569266	      0.52832560
     47.00000000	      1.42000000	      0.92209659	      0.52295758
     48.00000000	      1.43000000	      0.98172296	      0.51796081
     49.00000000	      1.44000000	      1.02666154	      0.51368797
     50.00000000	      1.45000000	      1.04156798	      0.51055059
     51.00000000	      1.46000000	      1.02261079	      0.50887732
     52.00000000	      1.47000000	      0.96267088	      0.50875384
     53.00000000	      1.48000000	      0.85890989	      0.50990170
     54.00000000	      1.49000000	      0.71241790	      0.51163869
     55.00000000	      1.50000000	      0.53100661	      0.51294054
     56.00000000	      1.51000000	      0.33387548	      0.51259975
     57.00000000	      1.52000000	      0.13286031	      0.50945402
     58.00000000	      1.53000000	     -0.05542228	      0.50263659
     59.00000000	      1.54000000	     -0.20782006	      0.49179249
     60.00000000	      1.55000000	     -0.30529455	      0.47722194
     61.00000000	      1.56000000	     -0.33566589	      0.45994186
     62.00000000	      1.57000000	     -0.29490675	      0.44165768
     63.00000000	      1.58000000	     -0.18715871	      0.42474638
     64.00000000	      1.59000000	     -0.02379377	      0.41215655
     65.00000000	      1.60000000	      0.17824031	      0.40727858
     66.00000000	      1.61000000	      0.39866016	      0.41374426
     67.00000000	      1.62000000	      0.61648181	      0.43512278
     68.00000000	      1.63000000	      0.81268120	      0.47446202
     69.00000000	      1.64000000	      0.97241812	      0.53363844
     70.00000000	      1.65000000	      1.08640044	      0.61262666
     71.00000000	      1.66000000	      1.15117708	      0.70894676
     72.00000000	      1.67000000	      1.16856514	      0.81756123
     73.00000000	      1.68000000	      1.14501630	      0.93242472
     74.00000000	      1.69000000	      1.08817161	      1.04953790
     75.00000000	      1.70000000	      1.00880406	      1.15851751
     76.00000000	      1.71000000	      0.91817465	      1.25226541
     77.00000000	      1.72000000	      0.82667258	      1.32507170
     78.00000000	      1.73000000	      0.74271420	      1.37288898
     79.00000000	      1.74000000	      0.67207467	      1.39340922
     80.00000000	      1.75000000	      0.61770689	      1.38581756
     81.00000000	      1.76000000	      0.57998606	      1.35111690
     82.00000000	      1.77000000	      0.55727591	      1.29205481
     83.00000000	      1.78000000	      0.54668532	      1.21302444
     84.00000000	      1.79000000	      0.54502252	      1.11924026
     85.00000000	      1.80000000	      0.54924205	      1.01786943
     86.00000000	      1.81000000	      0.55620586	      0.91549832
     87.00000000	      1.82000000	      0.56377761	      0.81779765
     88.00000000	      1.83000000	      0.57058114	      0.72945176
     89.00000000	      1.84000000	      0.57588956	      0.65404134
     90.00000000	      1.85000000	      0.57946975	      0.59403278
     91.00000000	      1.86000000	      0.58143895	      0.55082078
     92.00000000	      1.87000000	      0.58213827	      0.52485259
     93.00000000	      1.88000000	      0.58201737	      0.51581763
     94.00000000	      1.89000000	      0.58153109	      0.52284894
     95.00000000	      1.90000000	      0.58102621	      0.54468937
     96.00000000	      1.91000000	      0.58077852	      0.57977738
     97.00000000	      1.92000000	      0.58092236	      0.62623429
     98.00000000	      1.93000000	      0.58144176	      0.68151003
     99.00000000	      1.94000000	      0.58229801	      0.74200687
    100.00000000	      1.95000000	      0.58349434	      0.80484633
    101.00000000	      1.96000000	      0.58510622	      0.86636683
    102.00000000	      1.97000000	      0.58724676	      0.92264734
    103.00000000	      1.98000000	      0.58997931	      0.96960527
    104.00000000	      1.99000000	      0.59322757	      1.00279132
    105.00000000	      2.00000000	      0.59672925	      1.01690645
    106.00000000	      2.01000000	      0.60003703	      1.00644184
    107.00000000	      2.02000000	      0.60255577	      0.96812256
    108.00000000	      2.03000000	      0.60362752	      0.90020591
    109.00000000	      2.04000000	      0.60266548	      0.79292997
    110.00000000	      2.05000000	      0.59927977	      0.64951782
    111.00000000	      2.06000000	      0.59332953	      0.47882024
    112.00000000	      2.07000000	      0.58491582	      0.29453197
    113.00000000	      2.08000000	      0.57438030	      0.11273984
    114.00000000	      2.09000000	      0.56232722	     -0.04920558
    115.00000000	      2.10000000	      0.54963937	     -0.17794374
    116.00000000	      2.11000000	      0.53746185	     -0.26461981
    117.00000000	      2.12000000	      0.52710247	     -0.30492426
    118.00000000	      2.13000000	      0.51966985	     -0.29815386
    119.00000000	      2.14000000	      0.51607819	     -0.24581011
    120.00000000	      2.15000000	      0.51642479	     -0.15053623
    121.00000000	      2.16000000	      0.51981865	     -0.01584582
    122.00000000	      2.17000000	      0.52429519	      0.15340389
    123.00000000	      2.18000000	      0.52702577	      0.35022596
    124.00000000	      2.19000000	      0.52494343	      0.56492116
    125.00000000	      2.20000000	      0.51565445	      0.78506405
